<?xml version="1.0" encoding="UTF-8"?>
<svg xmlns="http://www.w3.org/2000/svg" xmlns:inkscape="http://www.inkscape.org/namespaces/inkscape" version="1.1" width="283.465pt" viewBox="0 0 283.465 283.465" xmlns:xlink="http://www.w3.org/1999/xlink" height="283.465pt">
 <defs>
  <path d="M0.771563 10 L0.771563 2.84172 L3.23734 2.84172 C3.79401 2.84172 4.2188 2.87594 4.51172 2.94437 C4.92193 3.03875 5.27188 3.20964 5.56156 3.45703 C5.93917 3.77599 6.22156 4.1837 6.40875 4.68016 C6.59594 5.17661 6.68953 5.74385 6.68953 6.38187 C6.68953 6.92542 6.62604 7.40719 6.49906 7.82719 C6.37208 8.24708 6.20932 8.59458 6.01078 8.86969 C5.81224 9.14469 5.59495 9.36115 5.35891 9.51906 C5.12286 9.67688 4.83802 9.79651 4.50438 9.87797 C4.17073 9.95932 3.78745 10 3.35453 10 L0.771563 10 L0.771563 10 Z M1.71875 9.15531 L3.24703 9.15531 C3.71911 9.15531 4.08943 9.11135 4.35797 9.02344 C4.62651 8.93552 4.84052 8.81182 5 8.65234 C5.22458 8.42776 5.39953 8.12583 5.52484 7.74656 C5.65026 7.36729 5.71297 6.9075 5.71297 6.36719 C5.71297 5.61844 5.59005 5.04307 5.34422 4.64109 C5.09849 4.23911 4.79984 3.96974 4.44828 3.83297 C4.19432 3.73536 3.78578 3.68656 3.22266 3.68656 L1.71875 3.68656 L1.71875 9.15531 Z" id="GlArialMT39"/>
  <path d="M0.786094 10 L0.786094 2.84172 L3.96 2.84172 C4.59802 2.84172 5.08302 2.90604 5.415 3.03469 C5.74708 3.16323 6.0124 3.39026 6.21094 3.71578 C6.40948 4.0413 6.50875 4.40099 6.50875 4.79484 C6.50875 5.30266 6.34438 5.73073 6.01563 6.07906 C5.68687 6.4274 5.17906 6.64875 4.49219 6.74313 C4.74281 6.86354 4.93323 6.98234 5.06344 7.09953 C5.34021 7.35349 5.60229 7.67089 5.84969 8.05172 L7.09469 10 L5.90328 10 L4.95609 8.51078 C4.67943 8.08109 4.45156 7.75234 4.2725 7.52453 C4.09344 7.29661 3.93307 7.13708 3.79141 7.04594 C3.64984 6.95479 3.50583 6.8913 3.35938 6.85547 C3.25198 6.83266 3.0762 6.82125 2.83203 6.82125 L1.73344 6.82125 L1.73344 10 L0.786094 10 L0.786094 10 Z M1.73344 6.00094 L3.76953 6.00094 C4.20245 6.00094 4.54099 5.9562 4.78516 5.86672 C5.02932 5.77714 5.21484 5.63391 5.34172 5.43703 C5.4687 5.24005 5.53219 5.02599 5.53219 4.79484 C5.53219 4.4563 5.40932 4.17802 5.16359 3.96 C4.91786 3.74188 4.52969 3.63281 3.99906 3.63281 L1.73344 3.63281 L1.73344 6.00094 Z" id="GlArialMT53"/>
 </defs>
 <g inkscape:label="Background" id="Background" inkscape:groupmode="layer">
  <g transform="translate(0.671936, 25.5118)">
   <use style="fill:#171615;stroke:none;" xlink:href="#GlArialMT39" transform="matrix(19.1 0 0 19.1 3.22501 -18.0928)"/>
   <use style="fill:#007022;stroke:none;" xlink:href="#GlArialMT53" transform="matrix(19.1 0 0 19.1 141.125 -18.0928)"/>
   <path style="fill:none; stroke:none;" d="M0 0 L282.793 0 L282.793 257.142 L0 257.142 L0 0 Z"/>
  </g>
 </g>
</svg>
